<svg id="Calque_1" data-name="Calque 1" xmlns="http://www.w3.org/2000/svg" viewBox="0 0 346.75 124.1"><defs><style>.cls-1{fill:#0069b3;}.cls-2{font-size:105.59px;fill:#35a8e0;stroke:#35a8e0;stroke-miterlimit:10;stroke-width:0.5px;font-family:Elephant-Regular, Elephant;}</style></defs><path class="cls-1" d="M221.62,465.86H179.08c.67.87,1.36,1.66,1.92,2.53a7,7,0,0,1,0,8c-2,3.28-5.08,4.62-8.51,5.06a13,13,0,0,1-10.31-2.79,7.86,7.86,0,0,1-3.18-6.81,8.41,8.41,0,0,1,3.9-6.3c.61-.42,1.26-.77,1.89-1.16-.29-1.32-.54-2.64-.87-3.92s-.8-2.61-1.14-3.93c-.42-1.61-.73-3.25-1.15-4.85-.87-3.25-1.78-6.49-2.66-9.74-.3-1.09-.57-2.18-.83-3.28-.4-1.69-.77-3.38-1.19-5.06-.82-3.32-1.64-6.63-2.49-9.94-.67-2.58-1.41-5.15-2.08-7.73-.6-2.28-1.14-4.58-1.73-6.86a1.18,1.18,0,0,0-1.27-1c-4.37,0-8.73,0-13.09,0a5.37,5.37,0,0,1-4.47-1.7,3.7,3.7,0,0,1-1-1.91,14,14,0,0,1,.24-3.77c.42-2.12,2.12-2.64,3.81-3a4.86,4.86,0,0,1,1-.06h21a4.92,4.92,0,0,1,4.27,1.9,8.72,8.72,0,0,1,1.13,2.75c.46,1.67.77,3.38,1.24,5,.09.32.54.61.88.76a2.56,2.56,0,0,0,1,0h78.74a6.67,6.67,0,0,1,4,.89,3.45,3.45,0,0,1,1.59,4.12c-.66,2.56-1.32,5.12-2,7.67s-1.47,5-2.19,7.47c-.82,2.87-1.62,5.74-2.44,8.61s-1.61,5.6-2.39,8.41c-1,3.63-2.14,4.81-6,4.82q-29.35,0-58.71,0h-1.35c.44,1.69.84,3.28,1.28,4.85.05.17.32.31.52.36a3.54,3.54,0,0,0,.8,0h54a6,6,0,0,1,3.72,1,3.38,3.38,0,0,1,1.48,3.64c-.16.82-.48,1.61-.7,2.42-.14.55-.22,1.11-.27,1.42a43.18,43.18,0,0,1,4.22,3.22,7.59,7.59,0,0,1,.72,9.79,11.52,11.52,0,0,1-8.25,4.61,12.84,12.84,0,0,1-10.32-2.78c-2.72-2.29-3.77-5.06-2.7-8.65C219.58,468.48,220.79,467.21,221.62,465.86Z" transform="translate(-130.83 -390.83)"/><text class="cls-2" transform="translate(128.74 91.53) scale(0.48 1)">Panier</text></svg>