<?xml version="1.0" encoding="utf-8"?>
<!-- Generator: Adobe Illustrator 24.3.0, SVG Export Plug-In . SVG Version: 6.00 Build 0)  -->
<svg version="1.1" id="Calque_1" xmlns="http://www.w3.org/2000/svg" xmlns:xlink="http://www.w3.org/1999/xlink" x="0px" y="0px"
	 viewBox="0 0 841.9 595.3" style="enable-background:new 0 0 841.9 595.3;" xml:space="preserve">
<style type="text/css">
	.st0{fill:#006EB7;stroke:#006EB7;stroke-miterlimit:10;}
	.st1{fill:none;}
	.st2{fill:#36A9E1;stroke:#36A9E1;stroke-width:0.75;stroke-miterlimit:10;}
	.st3{font-family:'AlbertusMedium';}
	.st4{font-size:216.9638px;}
	.st5{letter-spacing:10.2;}
</style>
<g>
	<path class="st0" d="M348.9,164.4c-8.6-0.1-16.4,0.1-24.2-0.2c-10.6-0.4-16.8-10.7-12.5-20.3c2.3-5.1,6.5-8.2,12.1-8.2
		c15.7-0.1,31.3-0.1,47,0.4c10.9,0.4,16.7,10.3,12.5,20.7c-5,12.4-10.2,24.7-15.5,36.9c-12.9,30.1-26,60.2-38.8,90.4
		c-3.4,8-8.9,11.5-17.6,11.4c-53.4-0.6-106.9-0.9-160.3-1.3c-10.5-0.1-14.7-3.3-17.6-13.1c-10.3-34.8-20.7-69.6-31-104.4
		c-6.5-22-13.1-43.9-19.4-66c-1-3.4-2.5-4.3-5.9-4.3c-14.2,0.1-28.3,0-42.5-0.3c-11.2-0.3-17.8-11.5-12.6-21c3-5.5,8-7.8,14.1-7.7
		c9,0.1,18.1,0.1,27.1,0.2c9.2,0.1,18.4,0.1,27.5,0.2c8.7,0.1,13.5,3.7,16,12.1c7.9,26.5,15.8,53,23.7,79.5
		c9.1,30.6,18.1,61.3,27,92c0.8,2.9,2,4.1,5.2,4.1c46.2,0.2,92.3,0.6,138.5,1.1c2.8,0,4.3-0.8,5.4-3.5
		c12.1-28.4,24.3-56.8,36.5-85.2C345.4,173.8,346.9,169.5,348.9,164.4z"/>
	<path class="st0" d="M338.1,361.6c-0.1,13.9-11.6,25.1-25.5,24.9c-13.7-0.2-24.8-11.5-24.7-25.2c0.1-14,11.4-25.2,25.3-25.1
		C327.1,336.3,338.3,347.7,338.1,361.6z"/>
	<path class="st0" d="M145.2,385.2c-13.8-0.2-25.1-11.7-24.9-25.6c0.2-13.7,11.6-24.8,25.3-24.8c13.8,0,25.2,11.5,25.1,25.4
		C170.6,374.1,159.1,385.4,145.2,385.2z"/>
</g>
<rect x="416.5" y="187.1" class="st1" width="400.3" height="199.4"/>
<text transform="matrix(0.5896 0 0 1 416.4564 352.4068)" class="st2 st3 st4 st5">Panier</text>
</svg>
