<svg id="Calque_1" data-name="Calque 1" xmlns="http://www.w3.org/2000/svg" viewBox="0 0 117.46 169.42"><defs><style>.cls-1{fill:#2286c2;}.cls-2{fill:#2287c2;}.cls-3{fill:#2387c2;}</style></defs><path class="cls-1" d="M307.14,196.71c-.29,1.37-.66,3.81-1.34,6.14-1.29,4.39-.45,8.07,2.77,11.23a39.54,39.54,0,0,1,4.09,4.66c2.32,3.13,2.29,5.79-.09,8.86a63.8,63.8,0,0,1-4.55,5.16,9.54,9.54,0,0,0-2.47,9.42,58.77,58.77,0,0,1,1.52,7.87c.35,3.48-.72,5.19-3.84,6.53a44.91,44.91,0,0,1-6.06,2,9.6,9.6,0,0,0-7.49,7.47,52.24,52.24,0,0,1-2.46,7.6,5.08,5.08,0,0,1-6.12,3.37,56.2,56.2,0,0,1-6.39-1.45c-4-1.18-7.38-.43-10.28,2.81a42.77,42.77,0,0,1-4.83,4.6c-2.76,2.25-5.32,2.21-8-.12-2.07-1.77-4-3.71-5.95-5.62a7.64,7.64,0,0,0-7.45-2c-2.45.54-4.88,1.22-7.34,1.65-3.81.67-5.88-.57-7.26-4.38-.93-2.55-1.62-5.21-2.4-7.82a7.71,7.71,0,0,0-5.06-5.4c-1.86-.64-3.76-1.17-5.62-1.81a22.86,22.86,0,0,1-3-1.25,5.35,5.35,0,0,1-3.23-5.62,38.74,38.74,0,0,1,1.23-6.88c1.46-4.86.45-8.81-3.19-12.2a31.1,31.1,0,0,1-4.09-4.89,5.76,5.76,0,0,1-.1-7A43.73,43.73,0,0,1,202.8,214a10.21,10.21,0,0,0,2.81-10.73,43.35,43.35,0,0,1-1.37-7c-.35-3.49.78-5.34,3.92-6.67a42.63,42.63,0,0,1,5.91-2,9.62,9.62,0,0,0,7.62-7.76,54,54,0,0,1,1.9-6.36c1.22-3.42,3.3-4.81,6.73-4.32a59.49,59.49,0,0,1,7.18,1.61,8.58,8.58,0,0,0,9.09-2.72,51.3,51.3,0,0,1,4.81-4.64c3.16-2.59,5.63-2.54,8.71.14,1.88,1.63,3.64,3.44,5.42,5.2a7.83,7.83,0,0,0,7.88,2.09c2.23-.54,4.45-1.13,6.7-1.57,4.14-.8,6.38.55,7.84,4.75.77,2.26,1.43,4.56,2,6.87a8.45,8.45,0,0,0,6.1,6.3c2,.61,4,1.17,5.95,1.86C305.75,190.37,307.19,192.27,307.14,196.71Zm-51.49-15.09c-21.78-.05-39.55,18.46-39.6,41.24-.06,23.07,17.56,41.69,39.47,41.72s39.7-18.39,39.76-41.41S277.66,181.66,255.65,181.62Z" transform="translate(-196.92 -161.51)"/><path class="cls-1" d="M252.88,290.58c-2.11,5.41-4.35,11.17-6.59,16.93q-4.14,10.64-8.29,21.25c-.39,1-.72,2.37-2,2.14a4,4,0,0,1-2.28-1.83q-3.84-6.06-7.45-12.3A2.54,2.54,0,0,0,223,315.4c-4.65,1.2-9.31,2.37-14,3.43a2.84,2.84,0,0,1-2.32-.54,2.78,2.78,0,0,1-.16-2.32c4.63-12,9.33-24,14-36,.08-.21.2-.39.23-.47a38,38,0,0,0,5.34,2.81c2.88,1,5.83.33,8.71-.39,7.47-1.86,5.21-2.13,10.77,3C247.79,286.94,250.28,288.58,252.88,290.58Z" transform="translate(-196.92 -161.51)"/><path class="cls-2" d="M258.26,290c4-1.29,6.79-4.14,9.43-7.1,1.79-2,3.62-2.62,6.11-1.72a36.12,36.12,0,0,0,5.25,1.25c4.32.85,8.25.15,11.48-3.62l1.26,2.77c3.06,6.76,6.15,13.5,9.14,20.3a3.47,3.47,0,0,1,0,2.77c-.35.54-1.65.69-2.47.55-4.57-.77-9.13-1.64-13.67-2.56a2.83,2.83,0,0,0-3.57,1.77c-2.15,4.3-4.43,8.53-6.76,12.73-.41.75-1.35,1.74-2,1.67a3.23,3.23,0,0,1-2-1.81C266.41,308.1,262.4,299.15,258.26,290Z" transform="translate(-196.92 -161.51)"/><path class="cls-3" d="M250,230.34c1.87-4,3.55-7.91,5.45-11.69a83.79,83.79,0,0,1,11.44-16.87,7.13,7.13,0,0,1,5.16-2.57,16.68,16.68,0,0,1,8.35,1.11c1.63.76,1.75,1.46.57,2.79a90.09,90.09,0,0,0-20.17,40.21c-.45,2-1.37,3.19-3.17,3.32a76.59,76.59,0,0,1-8.3.09,4.36,4.36,0,0,1-3.51-2.45,86.6,86.6,0,0,0-15-17.54c-1.79-1.64-1.68-2.9.63-3.58,4.83-1.43,9.57-1.81,13.58,2.36C246.57,227.16,248.27,228.69,250,230.34Z" transform="translate(-196.92 -161.51)"/></svg>