<svg id="Calque_1" data-name="Calque 1" xmlns="http://www.w3.org/2000/svg" viewBox="0 0 168.77 50.11"><defs><style>.cls-1{fill:#006eb7;}.cls-2{fill:#36a9e1;}</style></defs><path class="cls-1" d="M321.93,255.13c-.35,0-3.66.12-4.76.08-1.84-.06-2.75-1.12-2.75-3.13q0-12,0-24c0-2.38,1.16-3.38,3.2-3.38,7.37,0,14.74-.06,22.1,0,3.06,0,3.6,1.11,3.27,6-2.38-1.1-4.66-2.35-7.05-3.2-4.49-1.59-8.56-.29-12.19,2.78s-3.55,11.4.66,13.79c3.61,2.06,7.61,3.32,11.46,4.86,1.67.67,3.79.79,3.6,3.56-.18,2.54-2.12,2.5-3.79,2.88a5.39,5.39,0,0,1-6.17-2.29c-1.59-2.35-3.73-3.88-6.17-2.94C322,250.6,323.45,252.86,321.93,255.13Z" transform="translate(-314.42 -213.43)"/><path class="cls-1" d="M328.36,236.72c2-3,4.14-3.5,6.66-2.12a29.48,29.48,0,0,1,5.46,3.39c.69.6.82,2.37.63,3.49-.08.42-1.9.88-2.78.65a44.63,44.63,0,0,1-7.43-2.63C329.9,239,329.23,237.72,328.36,236.72Z" transform="translate(-314.42 -213.43)"/><path class="cls-1" d="M320.05,222.85c1.31-5.52,5.64-9.58,9.59-9.41,3.44.14,6.65,3.8,7.11,8.9-.84-1.37-1.64-2.75-2.51-4.08-3.11-4.71-6-4.89-9.59-.66C323.25,219.26,321.79,220.87,320.05,222.85Z" transform="translate(-314.42 -213.43)"/><path class="cls-2" d="M345.16,231.87v-3.18a15.94,15.94,0,0,0,6.52-1.69h1.76v10.26a19.91,19.91,0,0,1,2.25-1.17,7.14,7.14,0,0,1,2.92-.66,5.28,5.28,0,0,1,4.21,1.65,7.23,7.23,0,0,1,1.45,4.92v7.1a3.57,3.57,0,0,0,.48,2.32,4,4,0,0,0,1.82.72v3.18h-9.79v-3.18c.92-.23,1.46-.52,1.62-.89a6.67,6.67,0,0,0,.23-2.15v-7.47a2.08,2.08,0,0,0-.42-1.56,1.6,1.6,0,0,0-1.1-.36,4.57,4.57,0,0,0-3.67,1.66v8.13a2.78,2.78,0,0,0,.55,2.05,2.43,2.43,0,0,0,1.3.59v3.18h-10v-3.18a5.53,5.53,0,0,0,1.75-.44c.49-.22.73-1,.73-2.22V235.22a16.94,16.94,0,0,0-.07-1.71,1.53,1.53,0,0,0-.34-1A3.71,3.71,0,0,0,345.16,231.87Z" transform="translate(-314.42 -213.43)"/><path class="cls-2" d="M368.41,245.57a10.45,10.45,0,0,1,2.55-7.38,9.88,9.88,0,0,1,13.66,0,10.48,10.48,0,0,1,2.56,7.5q0,4.82-2.61,7.44a9.15,9.15,0,0,1-6.78,2.63,8.84,8.84,0,0,1-6.88-2.74A10.6,10.6,0,0,1,368.41,245.57Zm6.09.06c0,4.1,1.13,6.15,3.37,6.15s3.22-2.09,3.22-6.26-1.09-6.15-3.27-6.15S374.5,241.46,374.5,245.63Z" transform="translate(-314.42 -213.43)"/><path class="cls-2" d="M397.13,237.56a6.09,6.09,0,0,1,4.51-2.13A6.36,6.36,0,0,1,407.1,238c1.28,1.71,1.91,4.12,1.91,7.23a12.62,12.62,0,0,1-2.14,7.41,6.54,6.54,0,0,1-5.61,3.06,7.26,7.26,0,0,1-3.86-.91v3.12c0,1.08.17,1.74.52,2a3.8,3.8,0,0,0,1.95.43v3.18H389.11v-3.18a3.75,3.75,0,0,0,2.15-.68,3.71,3.71,0,0,0,.49-2.36V242.43a2.51,2.51,0,0,0-.41-1.65,4.2,4.2,0,0,0-2.23-.78v-3.18l6.24-1h1.78Zm.27,13a3.18,3.18,0,0,0,2.57,1.26,2.7,2.7,0,0,0,2.44-1.88,11.74,11.74,0,0,0,.88-4.92,8.77,8.77,0,0,0-.81-4.11,2.36,2.36,0,0,0-2.05-1.5,3.68,3.68,0,0,0-1.78.4A3.44,3.44,0,0,0,397.4,241Z" transform="translate(-314.42 -213.43)"/><path class="cls-2" d="M421,243.14v-1.81a3,3,0,0,0-.41-1.77,2,2,0,0,0-1.68-.57c-1.41,0-2.11.54-2.11,1.63a3.35,3.35,0,0,1-.67,2.19,2.24,2.24,0,0,1-1.88.84,2.41,2.41,0,0,1-1.81-.8,2.89,2.89,0,0,1-.76-2.09,4.58,4.58,0,0,1,2-3.85,9.49,9.49,0,0,1,5.68-1.48c2.48,0,4.27.54,5.4,1.64s1.7,2.76,1.7,5.06v7.92c0,1.15.19,1.73.57,1.73.19,0,.5-.2.93-.61l1.85,2.59a5.87,5.87,0,0,1-4.15,2,4.29,4.29,0,0,1-4-2.13,8,8,0,0,1-5.25,2.13,5.43,5.43,0,0,1-3.94-1.5,5.3,5.3,0,0,1-1.55-4Q410.93,244.32,421,243.14Zm0,3.18q-4.31.88-4.3,3.12a2.13,2.13,0,0,0,.47,1.46,1.5,1.5,0,0,0,1.16.54,3.39,3.39,0,0,0,2.67-1.32Z" transform="translate(-314.42 -213.43)"/><path class="cls-2" d="M430.27,240v-3.18l6.09-1H438v1.73a9.4,9.4,0,0,1,5.82-2.13,5.89,5.89,0,0,1,4.47,2.13,10.55,10.55,0,0,1,6.41-2.13q5.57,0,5.56,6.15v7.52a3.21,3.21,0,0,0,.53,2,3.77,3.77,0,0,0,2.11,1.07v3.18H452.72v-3.18a3.93,3.93,0,0,0,1.47-.65,3.29,3.29,0,0,0,.38-2v-7c0-1.85-.6-2.78-1.8-2.78a4,4,0,0,0-3.39,1.41v8.3a3.29,3.29,0,0,0,.43,2,2.6,2.6,0,0,0,1.42.72v3.18h-9.34v-3.18c1.1-.25,1.68-.68,1.75-1.29a15.41,15.41,0,0,0,.1-1.75v-6.61c0-1.85-.51-2.78-1.52-2.78a5.56,5.56,0,0,0-3.66,1.58v8.09a4,4,0,0,0,.36,2,2.11,2.11,0,0,0,1.49.78v3.18h-10v-3.18a4.52,4.52,0,0,0,2-.57c.34-.25.51-1.08.51-2.47V243a4.28,4.28,0,0,0-.41-2.3C432.22,240.35,431.48,240.1,430.27,240Z" transform="translate(-314.42 -213.43)"/><path class="cls-2" d="M464.42,245.57a10.49,10.49,0,0,1,2.54-7.38,9.9,9.9,0,0,1,13.67,0,10.52,10.52,0,0,1,2.55,7.5c0,3.21-.86,5.69-2.6,7.44a9.15,9.15,0,0,1-6.79,2.63,8.85,8.85,0,0,1-6.88-2.74A10.65,10.65,0,0,1,464.42,245.57Zm6.09.06q0,6.15,3.37,6.15,3.21,0,3.21-6.26t-3.26-6.15Q470.52,239.37,470.51,245.63Z" transform="translate(-314.42 -213.43)"/></svg>